# xmcd
# 
# Track frame offsets:
#     150
#     11885
#     25663
#     36591
#     47806
#     59525
#     73923
#     89611
#     102596
#     111169
#     122448
#     137241
#     151166
#     162440
#     171157
#     184142
#     202325
#     214400
#     226247
#     234433
#     246757
#     255782
# 
# Disc length: 3611
# 
# Revision: 3
# Processed by: cddbd v1.5.2PL0 Copyright (c) Steve Scherf et al.
# Submitted via: fre:ac v1.0.27
# 
DISCID=430e1916
DTITLE=David McWilliams - The Days of David McWilliams
DYEAR=2004
DGENRE=Misc
TTITLE0=Days of Pearly Spencer
TTITLE1=For Josephine
TTITLE2=Brown Eyed Girl
TTITLE3=Marlena
TTITLE4=For A Little Girl
TTITLE5=Lady Helen of the Laughing Eyes
TTITLE6=What's the Matter with Me
TTITLE7=There is No Lock Upon My Door
TTITLE8=Tomorrows Like Today
TTITLE9=Mister Satisfied
TTITLE10=I Love Susie in the Summer
TTITLE11=Harlem Lady
TTITLE12=Letter To My Love
TTITLE13=City Blues
TTITLE14=Three O'Clock Flamingo Street
TTITLE15=Redundancy Blues
TTITLE16=Hiroshima
TTITLE17=Question of identity
TTITLE18=Time of Trouble
TTITLE19=And I'm Free
TTITLE20=In the Early Hours of the Morning
TTITLE21=Born To Ramble
EXTD=
EXTT0=
EXTT1=
EXTT2=
EXTT3=
EXTT4=
EXTT5=
EXTT6=
EXTT7=
EXTT8=
EXTT9=
EXTT10=
EXTT11=
EXTT12=
EXTT13=
EXTT14=
EXTT15=
EXTT16=
EXTT17=
EXTT18=
EXTT19=
EXTT20=
EXTT21=
PLAYORDER=
